<svg xmlns="http://www.w3.org/2000/svg" xmlns:xlink="http://www.w3.org/1999/xlink" width="149px" height="155px" viewBox="0 0 149 155" version="1.1"  onload=""><rect id="svgEditorBackground" x="0" y="0" width="149" height="155" style="fill:none;stroke:none;"/>
    <!-- Generator: Sketch 52.4 (67378) - http://www.bohemiancoding.com/sketch -->
    <title>swirl</title>
    <desc>Created with Sketch.</desc>
    <defs>
        <polygon id="path-1" points="0.000498076923 0 147.634981 0 147.634981 154.916652 0.000498076923 154.916652"/>
    </defs>
    <g id="Page-1" stroke="none" stroke-width="1" fill="none" fill-rule="evenodd">
        <g id="Home-3.1" transform="translate(-1107.000000, -3371.000000)">
            <g id="TESTIMONIALS" transform="translate(-11.018095, 2796.562500)">
                <g id="swirl" transform="translate(1118.830595, 574.437500)">
                    <mask id="mask-2" fill="white">
                        <use xlink:href="#path-1"/>
                    </mask>
                    <g id="Clip-2"/>
                    <path d="M101.62171,10.5134788 C99.9524404,9.75284423 98.2312288,9.04628654 96.5064596,8.41301731 L97.9779212,4.40492115 C99.8030173,5.07519038 101.625267,5.82372885 103.392017,6.62847885 L101.62171,10.5134788 Z M19.6496327,24.9840365 L16.6590365,21.9379404 C18.9537481,19.6837865 21.4213635,17.5441904 23.993575,15.5789212 C35.4813635,6.79924808 49.1222673,1.41219038 63.4405558,-0.000213461538 L63.8603635,4.24838269 C50.3318827,5.58322885 37.4423635,10.6742865 26.5857096,18.970825 C24.1536712,20.830075 21.819825,22.8529788 19.6496327,24.9840365 Z M129.43646,32.7191712 C124.348248,26.0620173 118.247517,20.3839404 111.302902,15.8429019 L113.639594,12.2702673 C120.990498,17.0759981 127.446287,23.0842288 132.828363,30.126325 L129.43646,32.7191712 Z M143.428863,64.6338058 C142.001517,56.4219404 139.20019,48.5758058 135.105287,41.3117096 L138.823787,39.2148058 C143.15919,46.9036904 146.12346,55.2094788 147.635479,63.9016327 L143.428863,64.6338058 Z M14.4248058,130.307383 C12.6843827,128.44244 11.0087096,126.459383 9.44545962,124.414421 C5.66149808,119.462113 2.48305577,114.082171 0.000498076923,108.424729 L3.90969038,106.70921 C6.25634423,112.05571 9.25974808,117.139652 12.838075,121.821575 C14.3166519,123.756248 15.9005365,125.631152 17.546325,127.394344 L14.4248058,130.307383 Z M27.7561904,141.68844 C26.1459788,140.603344 24.5542673,139.441402 23.0280173,138.234633 L25.6756519,134.885421 C27.1172288,136.025306 28.6199981,137.122498 30.1412673,138.147113 L27.7561904,141.68844 Z M71.1856519,154.916652 C67.5489788,154.916652 63.8767288,154.658363 60.2699404,154.148902 L60.8676327,149.921652 C64.277325,150.403363 67.7489212,150.647421 71.1863635,150.647421 L71.1927673,150.647421 C84.423825,150.647421 97.4029981,147.066248 108.729267,140.290267 L110.920806,143.95469 C98.9335173,151.126287 85.1951327,154.916652 71.1927673,154.916652 L71.1856519,154.916652 Z" id="Fill-1" mask="url(#mask-2)" style="fill:#9BDEBB;"/>
                </g>
            </g>
        </g>
    </g>
</svg>